<?xml version="1.0" standalone="no"?><!DOCTYPE svg PUBLIC "-//W3C//DTD SVG 1.1//EN" "http://www.w3.org/Graphics/SVG/1.1/DTD/svg11.dtd"><svg t="1514195254547" class="icon" style="" viewBox="0 0 1024 1024" version="1.1" xmlns="http://www.w3.org/2000/svg" p-id="2432" xmlns:xlink="http://www.w3.org/1999/xlink" width="128" height="128"><defs><style type="text/css"></style></defs><path d="M899.072 64.512h-114.176V19.456h-66.56v45.056h-332.8V19.456h-66.56v45.056H148.992C69.12 64.512 0 125.44 0 197.632v675.328c0 71.68 69.12 135.68 148.992 135.68h739.328c71.68 0 135.68-60.928 135.68-135.68V197.632c2.56-72.192-53.248-130.56-124.928-133.12zM957.44 872.96c0 39.936-31.744 69.12-71.68 69.12H148.992c-42.496 0-82.432-34.816-82.432-69.12V197.632c0-37.376 42.496-66.56 82.432-66.56h169.984v100.864h66.56V131.072h332.288v100.864h66.56V131.072H896c34.816 2.56 60.928 31.744 60.928 66.56v675.328z" fill="#ffffff" p-id="2433"></path><path d="M194.048 489.984h611.84v66.56H194.048zM194.048 330.24h478.72v66.56H194.048zM194.048 649.728h265.728v66.56H194.048z" fill="#ffffff" p-id="2434"></path></svg>