<?xml version="1.0" standalone="no"?><!DOCTYPE svg PUBLIC "-//W3C//DTD SVG 1.1//EN" "http://www.w3.org/Graphics/SVG/1.1/DTD/svg11.dtd"><svg t="1514195554341" class="icon" style="" viewBox="0 0 1024 1024" version="1.1" xmlns="http://www.w3.org/2000/svg" p-id="3394" xmlns:xlink="http://www.w3.org/1999/xlink" width="32" height="32"><defs><style type="text/css"></style></defs><path d="M931.488 198.912v-0.224L737.28 3.2h-1.504l-3.2-3.2H194.624A66.816 66.816 0 0 0 128 66.624v890.784C128 994.016 157.984 1024 194.624 1024h698.784A66.816 66.816 0 0 0 960 957.376V227.424l-28.512-28.512zM701.696 67.2h7.584l158.208 158.208v7.584h-121.664c-24.352 0-44.16-19.808-44.16-44.16l0.032-121.632zM896 957.376a2.816 2.816 0 0 1-2.624 2.624H194.624A2.816 2.816 0 0 1 192 957.376V66.624C192 65.312 193.312 64 194.624 64h443.072v124.864a108.288 108.288 0 0 0 108.16 108.16H896v660.352z" p-id="3395" fill="#ffffff"></path><path d="M335.904 512m-64 0a64 64 0 1 0 128 0 64 64 0 1 0-128 0Z" p-id="3396" fill="#ffffff"></path><path d="M543.936 512m-64 0a64 64 0 1 0 128 0 64 64 0 1 0-128 0Z" p-id="3397" fill="#ffffff"></path><path d="M751.968 512m-64 0a64 64 0 1 0 128 0 64 64 0 1 0-128 0Z" p-id="3398" fill="#ffffff"></path></svg>